<svg xmlns="http://www.w3.org/2000/svg" width="48" height="48">
  <path fill="none" d="M0 0h24v24H0z"/>
  <path d="M24.2 4.4l21 8.4v2.8h-3c0 .3 0 .8-.2 1-.2.2-.7.3-1 .3H7.5c-.3 0-.8-.4-1-.5-.2-.2-.3-.7-.3-1h-3v-2.8l21-8.4zM8.6 18.6h5.8v16.8h2.8V18.6H23v16.8h2.8V18.6h5.8v16.8h2.8V18.6H40v16.8h1.3l1 .3c.2.2.3.7.3 1V38H6.3v-1.3l.3-1c.2-.2.7-.3 1-.3H9l-.4-16.8zm35.2 21c.3 0 .8 0 1 .2.2.2.3.7.3 1v2.8H3v-2.8l.3-1c.3-.2.7-.3 1-.3h39.5z" class="st0"/>
  <path d="M24.2 4.4l21 8.4v2.8h-3c0 .3 0 .8-.2 1-.2.2-.7.3-1 .3H7.5c-.3 0-.8-.4-1-.5-.2-.2-.3-.7-.3-1h-3v-2.8l21-8.4zM8.6 18.6h5.8v16.8h2.8V18.6H23v16.8h2.8V18.6h5.8v16.8h2.8V18.6H40v16.8h1.3l1 .3c.2.2.3.7.3 1V38H6.3v-1.3l.3-1c.2-.2.7-.3 1-.3H9l-.4-16.8zm35.2 21c.3 0 .8 0 1 .2.2.2.3.7.3 1v2.8H3v-2.8l.3-1c.3-.2.7-.3 1-.3h39.5z" class="st0"/>
</svg>
